# xmcd
#
# Track frame offsets: 
#        150
#        17486
#        29719
#        49444
#        64726
#        78973
#        99460
#        114291
#        128173
#        143776
#        163986
#        176553
#        187427
#        202388
#        215924
#        238761
#        255088
#        262498
#        279000
#        290111
#        303787
#        309912
#        319238
#        336959
#
# Disc length: 4689 seconds
#
# Revision: 0
# Processed by: cddbd v1.5.2PL0 Copyright (c) Steve Scherf et al.
# Submitted via: ExactAudioCopy v0.95b3
#
DISCID=78124f18
DTITLE=Stories  - Stories and About Us  FLAC
DYEAR=1900
DGENRE=
TTITLE0=Hello People
TTITLE1=I'm Coming Home
TTITLE2=Winter Scenes
TTITLE3=Step Back
TTITLE4=You Told Me
TTITLE5=Saint James
TTITLE6=Kathleen
TTITLE7=Take Cover
TTITLE8=Nice To Have You Here
TTITLE9=High And Low
TTITLE10=Darling
TTITLE11=Don't Ever Let Me Down
TTITLE12=love Is In Motion
TTITLE13=Hey France
TTITLE14=Please
TTITLE15=Changes Have Begun
TTITLE16=Circles
TTITLE17=Believe Me
TTITLE18=Words
TTITLE19=Top Of The City
TTITLE20=Down Time Blooze
TTITLE21=What Comes After
TTITLE22=Brother Louie
TTITLE23=Another Love
EXTD=
EXTT0=
EXTT1=
EXTT2=
EXTT3=
EXTT4=
EXTT5=
EXTT6=
EXTT7=
EXTT8=
EXTT9=
EXTT10=
EXTT11=
EXTT12=
EXTT13=
EXTT14=
EXTT15=
EXTT16=
EXTT17=
EXTT18=
EXTT19=
EXTT20=
EXTT21=
EXTT22=
EXTT23=
PLAYORDER=
